<svg id="Capa_1" data-name="Capa 1" xmlns="http://www.w3.org/2000/svg" viewBox="0 0 300 300"><defs><style>.cls-1{opacity:0.32;}.cls-2{fill:#fff;}</style></defs><g class="cls-1"><path class="cls-2" d="M251.7,57.25a2.14,2.14,0,0,1-3-.09h0a2.17,2.17,0,0,1,.09-3.06h0a2.17,2.17,0,0,1,3.06.1h0A2.16,2.16,0,0,1,251.7,57.25Zm7.3,5.21h0a2.14,2.14,0,0,1-.32,3h0a2.14,2.14,0,0,1-3-.33h0a2.16,2.16,0,0,1,.32-3h0a2.17,2.17,0,0,1,2.92.2h0ZM244.13,49.57a2.16,2.16,0,0,1-3,.13h0a2.17,2.17,0,0,1-.15-3.06h0a2.16,2.16,0,0,1,3-.14h0l.12.13h0A2.16,2.16,0,0,1,244.13,49.57Zm21.41,21.71a2.16,2.16,0,0,1-.56,3h0a2.17,2.17,0,0,1-3-.58h0a2.17,2.17,0,0,1,.57-3h0a2.19,2.19,0,0,1,2.81.3h0A2.61,2.61,0,0,1,265.54,71.28ZM236,42.46a2.15,2.15,0,0,1-3,.39h0a2.17,2.17,0,0,1-.38-3h0a2.17,2.17,0,0,1,3-.39h0a1.12,1.12,0,0,1,.25.23h0A2.14,2.14,0,0,1,236,42.46Zm35.39,38.12a2.14,2.14,0,0,1-.79,2.94h0a2.14,2.14,0,0,1-2.95-.8h0a2.15,2.15,0,0,1,.8-2.94h0a2.16,2.16,0,0,1,2.65.39h0A1.61,1.61,0,0,1,271.36,80.58ZM227.29,36.06a2.14,2.14,0,0,1-3,.61h0a2.15,2.15,0,0,1-.63-3h0a2.18,2.18,0,0,1,3-.64h0a2.18,2.18,0,0,1,.4.34h0A2.17,2.17,0,0,1,227.29,36.06Zm49.15,54.25a2.18,2.18,0,0,1-1,2.89h0a2.17,2.17,0,0,1-2.87-1h0a2.15,2.15,0,0,1,1-2.89h0a2.16,2.16,0,0,1,2.49.48h0A1.64,1.64,0,0,1,276.44,90.31Zm-58.32-60a2.16,2.16,0,0,1-2.93.86h0a2.16,2.16,0,0,1-.86-2.93h0a2.13,2.13,0,0,1,2.93-.86h0a2.2,2.2,0,0,1,.54.41h0A2.19,2.19,0,0,1,218.12,30.34Zm62.63,70.07h0a2.18,2.18,0,0,1-1.27,2.79h0a2.13,2.13,0,0,1-2.77-1.25h0a2.17,2.17,0,0,1,1.25-2.8h0a2.18,2.18,0,0,1,2.33.56h0A2.36,2.36,0,0,1,280.75,100.41Zm-72.22-75a2.19,2.19,0,0,1-2.86,1.09h0a2.18,2.18,0,0,1-1.07-2.88h0a2.14,2.14,0,0,1,2.84-1.08h0a2.4,2.4,0,0,1,.71.5h0A2.16,2.16,0,0,1,208.53,25.38Zm75.68,85.45a2.14,2.14,0,0,1-1.46,2.68h0a2.15,2.15,0,0,1-2.67-1.46h0a2.15,2.15,0,0,1,1.47-2.69h0a2.18,2.18,0,0,1,2.17.6h0A1.92,1.92,0,0,1,284.21,110.83ZM198.58,21.17a2.17,2.17,0,0,1-2.76,1.32h0a2.18,2.18,0,0,1-1.3-2.78h0a2.15,2.15,0,0,1,2.76-1.29h0a1.93,1.93,0,0,1,.84.55h0A2.12,2.12,0,0,1,198.58,21.17Zm88.3,100.33h0a2.14,2.14,0,0,1-1.67,2.54h0a2.18,2.18,0,0,1-2.57-1.68h0a2.17,2.17,0,0,1,1.67-2.55h0a2.17,2.17,0,0,1,2,.63h0A2.25,2.25,0,0,1,286.88,121.5ZM188.34,17.77a2.16,2.16,0,0,1-2.65,1.51h0a2.14,2.14,0,0,1-1.52-2.63h0a2.16,2.16,0,0,1,2.64-1.54h0a2.32,2.32,0,0,1,1,.61h0A2.2,2.2,0,0,1,188.34,17.77ZM288.68,132.32a2.19,2.19,0,0,1-1.88,2.42h0a2.19,2.19,0,0,1-2.42-1.88h0a2.2,2.2,0,0,1,1.88-2.42h0a2.15,2.15,0,0,1,1.85.67h0A2.11,2.11,0,0,1,288.68,132.32ZM177.86,15.18a2.16,2.16,0,0,1-2.54,1.71v0a2.15,2.15,0,0,1-1.72-2.53h0a2.15,2.15,0,0,1,2.53-1.73h0a2.3,2.3,0,0,1,1.17.65h0A2.2,2.2,0,0,1,177.86,15.18ZM289.64,143.25a2.16,2.16,0,0,1-2.06,2.26h0a2.15,2.15,0,0,1-2.26-2h0a2.15,2.15,0,0,1,2.06-2.26h0a2.11,2.11,0,0,1,1.68.67h0A2.21,2.21,0,0,1,289.64,143.25ZM167.2,13.43a2.18,2.18,0,0,1-2.38,1.91h0A2.16,2.16,0,0,1,162.9,13h0A2.17,2.17,0,0,1,165.29,11h0a2.18,2.18,0,0,1,1.34.67h0A2.18,2.18,0,0,1,167.2,13.43ZM289.74,154.22a2.18,2.18,0,0,1-2.24,2.1h0a2.17,2.17,0,0,1-2.1-2.23h0a2.18,2.18,0,0,1,2.24-2.11h0a2.27,2.27,0,0,1,1.51.69h0A2.29,2.29,0,0,1,289.74,154.22ZM156.42,12.49a2.15,2.15,0,0,1-2.23,2.09h0a2.15,2.15,0,0,1-2.08-2.22h0a2.15,2.15,0,0,1,2.22-2.09h0a2.14,2.14,0,0,1,1.52.68h0A2.1,2.1,0,0,1,156.42,12.49ZM289,165.18a2.16,2.16,0,0,1-2.38,1.91h0a2.16,2.16,0,0,1-1.92-2.38h0a2.18,2.18,0,0,1,2.39-1.92h0a2.18,2.18,0,0,1,1.34.67h0A2.18,2.18,0,0,1,289,165.18ZM145.62,12.4a2.15,2.15,0,0,1-2.06,2.26h0a2.16,2.16,0,0,1-2.26-2.06h0a2.2,2.2,0,0,1,2.06-2.26h0A2.22,2.22,0,0,1,145,11h0A2.11,2.11,0,0,1,145.62,12.4ZM287.35,176a2.14,2.14,0,0,1-2.5,1.72h0a2.15,2.15,0,0,1-1.73-2.53h0a2.14,2.14,0,0,1,2.52-1.71h0a2.14,2.14,0,0,1,1.17.65h0A2.15,2.15,0,0,1,287.35,176ZM134.83,13.17A2.14,2.14,0,0,1,133,15.58h0a2.15,2.15,0,0,1-2.4-1.86h0a2.15,2.15,0,0,1,1.88-2.42h0a2.13,2.13,0,0,1,1.84.67h0A2.07,2.07,0,0,1,134.83,13.17ZM284.9,186.71a2.17,2.17,0,0,1-2.66,1.52h0a2.15,2.15,0,0,1-1.51-2.65h0a2.17,2.17,0,0,1,2.66-1.52h0a2,2,0,0,1,1,.6h0A2.15,2.15,0,0,1,284.9,186.71ZM124.15,14.77a2.18,2.18,0,0,1-1.68,2.57h0a2.2,2.2,0,0,1-2.57-1.69h0a2.19,2.19,0,0,1,1.69-2.56h0a2.19,2.19,0,0,1,2,.64h0A2.2,2.2,0,0,1,124.15,14.77Zm157.47,182.4a2.16,2.16,0,0,1-2.76,1.32h0a2.15,2.15,0,0,1-1.3-2.77h0a2.14,2.14,0,0,1,2.74-1.31h0a2.18,2.18,0,0,1,.86.56h0A2.19,2.19,0,0,1,281.62,197.17Zm-168-180a2.16,2.16,0,0,1-1.47,2.69h0a2.13,2.13,0,0,1-2.66-1.48h0a2.13,2.13,0,0,1,1.46-2.67h0a2.14,2.14,0,0,1,2.18.59h0A2.08,2.08,0,0,1,113.61,17.2ZM277.53,207.34a2.18,2.18,0,0,1-2.86,1.09h0a2.16,2.16,0,0,1-1.08-2.85h0a2.12,2.12,0,0,1,2.83-1.09h0a1.94,1.94,0,0,1,.71.5h0A2.15,2.15,0,0,1,277.53,207.34ZM103.31,20.47a2.17,2.17,0,0,1-1.26,2.79h0A2.17,2.17,0,0,1,99.26,22h0a2.16,2.16,0,0,1,1.26-2.79h0a2.18,2.18,0,0,1,2.36.54h0A2.41,2.41,0,0,1,103.31,20.47ZM272.63,217.16h0a2.14,2.14,0,0,1-2.93.85h0a2.14,2.14,0,0,1-.85-2.93h0a2.17,2.17,0,0,1,2.93-.86h0a2.59,2.59,0,0,1,.54.42h0A2.16,2.16,0,0,1,272.63,217.16ZM93.28,24.53a2.13,2.13,0,0,1-1,2.87h0a2.14,2.14,0,0,1-2.86-1h0a2.17,2.17,0,0,1,1-2.89h0a2.19,2.19,0,0,1,2.5.48h0A1.79,1.79,0,0,1,93.28,24.53ZM267,226.57a2.18,2.18,0,0,1-3,.63h0a2.17,2.17,0,0,1-.62-3h0a2.14,2.14,0,0,1,3-.61h0a2.15,2.15,0,0,1,.39.32h0A2.16,2.16,0,0,1,267,226.57ZM83.61,29.37a2.13,2.13,0,0,1-.79,2.94h0a2.14,2.14,0,0,1-2.95-.8h0a2.15,2.15,0,0,1,.8-2.94h0a2.18,2.18,0,0,1,2.65.39h0A2,2,0,0,1,83.61,29.37Zm177,206.13a2.18,2.18,0,0,1-3,.4h0a2.2,2.2,0,0,1-.39-3.05h0a2.19,2.19,0,0,1,3-.39h0a1.93,1.93,0,0,1,.25.24h0A2.14,2.14,0,0,1,260.62,235.5ZM74.38,35a2.19,2.19,0,0,1-.58,3h0a2.19,2.19,0,0,1-3-.57h0a2.19,2.19,0,0,1,.57-3h0a2.17,2.17,0,0,1,2.79.32h0A1.16,1.16,0,0,1,74.38,35Zm179.19,209h0a2.19,2.19,0,0,1-3.06.15h0a2.19,2.19,0,0,1-.15-3.07h0a2.19,2.19,0,0,1,3.06-.15h0l.12.13h0A2.17,2.17,0,0,1,253.57,243.91ZM65.59,41.25a2.17,2.17,0,0,1-.32,3h0a2.18,2.18,0,0,1-3-.34h0a2.17,2.17,0,0,1,.34-3.05h0a2.18,2.18,0,0,1,2.95.2h0A.71.71,0,0,1,65.59,41.25ZM245.88,251.73a2.17,2.17,0,0,1-3.06-.1h0a2.16,2.16,0,0,1,.1-3.06h0a2.16,2.16,0,0,1,3.05.1h0A2.17,2.17,0,0,1,245.88,251.73ZM57.25,51.26a.64.64,0,0,1-.17.13h0a.73.73,0,0,1-.14.16h0a2.18,2.18,0,0,1-3.08-.08h0a2.16,2.16,0,0,1,.1-3h0l.16-.15h0l.17-.16h0a2.16,2.16,0,0,1,3.06.09h0A2.17,2.17,0,0,1,57.25,51.26ZM237.93,255.9a2.16,2.16,0,0,1-.32,3h0a2.15,2.15,0,0,1-3-.32h0a2.16,2.16,0,0,1,.33-3h0a2.17,2.17,0,0,1,2.93.22h0ZM49.48,59.15a2.15,2.15,0,0,1-3,.16h0a2.17,2.17,0,0,1-.15-3.06h0a2.17,2.17,0,0,1,3.06-.15h0l.12.13h0A2.15,2.15,0,0,1,49.48,59.15Zm179.9,203.33a2.18,2.18,0,0,1-.57,3h0a2.15,2.15,0,0,1-3-.56h0a2.17,2.17,0,0,1,.55-3h0a2.19,2.19,0,0,1,2.81.31h0A1.88,1.88,0,0,1,229.38,262.48ZM42.66,67.3a2.16,2.16,0,0,1-3,.4h0a2.16,2.16,0,0,1-.38-3h0a2.19,2.19,0,0,1,3-.4h0a1.93,1.93,0,0,1,.25.24h0A2.14,2.14,0,0,1,42.66,67.3ZM220.31,268.36a2.17,2.17,0,0,1-.81,3h0v0h0a2.15,2.15,0,0,1-3-.78h0a2.16,2.16,0,0,1,.81-2.95h0A2.16,2.16,0,0,1,220,268h0A1.9,1.9,0,0,1,220.31,268.36ZM36.51,76a2.17,2.17,0,0,1-3,.63h0a2.15,2.15,0,0,1-.61-3h0a2.16,2.16,0,0,1,3-.62h0a2.2,2.2,0,0,1,.41.33h0A2.18,2.18,0,0,1,36.51,76ZM210.82,273.51a2.18,2.18,0,0,1-1,2.89h0a2.16,2.16,0,0,1-2.89-1h0a2.16,2.16,0,0,1,1-2.89h0a2.18,2.18,0,0,1,2.51.49h0A2.55,2.55,0,0,1,210.82,273.51ZM31.05,85.09h0A2.18,2.18,0,0,1,28.1,86h0A2.16,2.16,0,0,1,27.25,83h0a2.15,2.15,0,0,1,2.94-.87h0a2.14,2.14,0,0,1,.54.41h0A2.17,2.17,0,0,1,31.05,85.09ZM200.92,277.91a2.15,2.15,0,0,1-1.23,2.79h0a2.18,2.18,0,0,1-2.81-1.25h0a2.18,2.18,0,0,1,1.27-2.79h0a2.19,2.19,0,0,1,2.34.53h0A2.3,2.3,0,0,1,200.92,277.91ZM26.32,94.61a2.17,2.17,0,0,1-2.86,1.09h0a2.15,2.15,0,0,1-1.08-2.85h0a2.15,2.15,0,0,1,2.85-1.1h0a2.38,2.38,0,0,1,.7.49h0A2.19,2.19,0,0,1,26.32,94.61Zm164.43,186.9a2.19,2.19,0,0,1-1.48,2.69h0a2.18,2.18,0,0,1-2.69-1.47h0a2.19,2.19,0,0,1,1.47-2.7h0a2.18,2.18,0,0,1,2.17.61h0A2.34,2.34,0,0,1,190.75,281.51Zm-168.38-177h0a2.13,2.13,0,0,1-2.75,1.31h0A2.15,2.15,0,0,1,18.3,103h0a2.17,2.17,0,0,1,2.77-1.32h0a2.36,2.36,0,0,1,.84.55h0A2.16,2.16,0,0,1,22.37,104.46ZM180.29,284.3a2.15,2.15,0,0,1-1.67,2.55h0a2.17,2.17,0,0,1-2.56-1.69h0a2.14,2.14,0,0,1,1.67-2.54h0a2.19,2.19,0,0,1,2,.64h0A2.24,2.24,0,0,1,180.29,284.3ZM19.21,114.61a2.18,2.18,0,0,1-2.65,1.54h0A2.18,2.18,0,0,1,15,113.5h0A2.17,2.17,0,0,1,17.69,112h0a2.07,2.07,0,0,1,1,.59h0A2.16,2.16,0,0,1,19.21,114.61ZM169.66,286.25a2.17,2.17,0,0,1-1.88,2.42h0a2.17,2.17,0,0,1-2.42-1.88h0a2.2,2.2,0,0,1,1.88-2.42h0a2.18,2.18,0,0,1,1.85.67h0A2.11,2.11,0,0,1,169.66,286.25ZM16.85,125h0a2.15,2.15,0,0,1-2.53,1.72h0a2.14,2.14,0,0,1-1.73-2.5h0a2.18,2.18,0,0,1,2.52-1.74h0a2.19,2.19,0,0,1,1.17.65h0A2.18,2.18,0,0,1,16.85,125ZM158.91,287.37a2.17,2.17,0,0,1-2.06,2.26h0a2.16,2.16,0,0,1-2.26-2.06h0a2.15,2.15,0,0,1,2.06-2.26h0a2.16,2.16,0,0,1,1.67.68h0A2.18,2.18,0,0,1,158.91,287.37ZM15.3,135.51h0a2.17,2.17,0,0,1-2.39,1.92h0A2.17,2.17,0,0,1,11,135h0a2.16,2.16,0,0,1,2.39-1.91h0a2.18,2.18,0,0,1,1.34.67h0A2.17,2.17,0,0,1,15.3,135.51ZM148.1,287.64a2.16,2.16,0,0,1-2.22,2.09h0a2.16,2.16,0,0,1-2.09-2.22h0A2.18,2.18,0,0,1,146,285.4h0a2.16,2.16,0,0,1,1.52.68h0A2.12,2.12,0,0,1,148.1,287.64ZM14.59,146.12a2.17,2.17,0,0,1-2.23,2.09h0a2.14,2.14,0,0,1-2.1-2.21h0a2.16,2.16,0,0,1,2.21-2.1h0a2.13,2.13,0,0,1,1.52.67h0A2.21,2.21,0,0,1,14.59,146.12ZM137.32,287.06a2.15,2.15,0,0,1-2.38,1.91h0a2.16,2.16,0,0,1-1.92-2.38h0a2.16,2.16,0,0,1,2.39-1.91h0a2.17,2.17,0,0,1,1.34.66h0A2.19,2.19,0,0,1,137.32,287.06ZM14.7,156.75A2.16,2.16,0,0,1,12.64,159h0a2.17,2.17,0,0,1-2.28-2h0a2.16,2.16,0,0,1,2.06-2.26h0a2.07,2.07,0,0,1,1.69.66h0A2.22,2.22,0,0,1,14.7,156.75Zm111.9,128.9a2.16,2.16,0,0,1-2.53,1.73h0a2.16,2.16,0,0,1-1.71-2.52h0a2.17,2.17,0,0,1,2.51-1.74h0a2.25,2.25,0,0,1,1.18.65h0A2.17,2.17,0,0,1,126.6,285.65Zm-111-118.3a2.2,2.2,0,0,1-1.88,2.42h0a2.17,2.17,0,0,1-2.42-1.88h0a2.18,2.18,0,0,1,1.88-2.42h0a2.16,2.16,0,0,1,1.84.67h0A2.19,2.19,0,0,1,15.64,167.35ZM116,283.41a2.15,2.15,0,0,1-2.65,1.51h0a2.12,2.12,0,0,1-1.52-2.63h0a2.17,2.17,0,0,1,2.65-1.54h0a2.29,2.29,0,0,1,1,.61h0A2.15,2.15,0,0,1,116,283.41ZM17.39,177.84a2.18,2.18,0,0,1-1.66,2.56h0a2.21,2.21,0,0,1-2.58-1.67h0a2.19,2.19,0,0,1,1.69-2.57h0a2.2,2.2,0,0,1,2,.63h0A2.19,2.19,0,0,1,17.39,177.84Zm88.3,102.51a2.18,2.18,0,0,1-2.78,1.31h0a2.17,2.17,0,0,1-1.29-2.77h0a2.16,2.16,0,0,1,2.75-1.3h0a2,2,0,0,1,.85.56h0A2.17,2.17,0,0,1,105.69,280.35ZM20,188.16a2.16,2.16,0,0,1-1.46,2.68h0a2.17,2.17,0,0,1-2.68-1.46h0a2.16,2.16,0,0,1,1.48-2.69h0a2.15,2.15,0,0,1,2.17.6h0A2,2,0,0,1,20,188.16Zm75.62,88.33a2.14,2.14,0,0,1-2.84,1.07h0a2.17,2.17,0,0,1-1.09-2.86h0a2.15,2.15,0,0,1,2.85-1.07h0a2,2,0,0,1,.7.49h0A2.14,2.14,0,0,1,95.59,276.49ZM23.37,198.26A2.13,2.13,0,0,1,22.12,201h0a2.17,2.17,0,0,1-2.8-1.25h0A2.17,2.17,0,0,1,20.58,197h0a2.19,2.19,0,0,1,2.34.53h0A2.41,2.41,0,0,1,23.37,198.26Zm62.49,73.58a2.17,2.17,0,0,1-2.93.86h0a2.16,2.16,0,0,1-.86-2.93h0a2.13,2.13,0,0,1,2.93-.86h0a1.8,1.8,0,0,1,.54.41h0A2.19,2.19,0,0,1,85.86,271.84ZM27.55,208h0a2.16,2.16,0,0,1-1,2.87h0a2.13,2.13,0,0,1-2.86-1h0a2.16,2.16,0,0,1,1-2.88h0a2.18,2.18,0,0,1,2.51.46h0A2.27,2.27,0,0,1,27.55,208Zm49,58.39a2.18,2.18,0,0,1-3,.64h0a2.16,2.16,0,0,1-.62-3h0a2.17,2.17,0,0,1,3-.65h0a2.18,2.18,0,0,1,.4.34h0A2.18,2.18,0,0,1,76.5,266.43Zm-44-49a2.16,2.16,0,0,1-.79,2.94h0a2.2,2.2,0,0,1-3-.8h0a2.17,2.17,0,0,1,.81-2.95h0a2.16,2.16,0,0,1,2.65.39h0A1.6,1.6,0,0,1,32.48,217.46Zm35.13,42.85a2.18,2.18,0,0,1-3,.38h0a2.16,2.16,0,0,1-.39-3h0a2.15,2.15,0,0,1,3-.38h0a1.6,1.6,0,0,1,.27.22h0A2.16,2.16,0,0,1,67.61,260.31ZM38.14,226.44a2.19,2.19,0,0,1-.55,3h0a2.18,2.18,0,0,1-3-.55h0a2.18,2.18,0,0,1,.56-3h0a2.16,2.16,0,0,1,2.8.3h0A1.64,1.64,0,0,1,38.14,226.44ZM59.22,253.5a2.14,2.14,0,0,1-3,.13h0a2.15,2.15,0,0,1-.17-3h0a2.19,2.19,0,0,1,3.07-.14h0l.11.12h0A2.16,2.16,0,0,1,59.22,253.5ZM44.49,235h0a2.16,2.16,0,0,1-.34,3.05h0a2.15,2.15,0,0,1-3-.33h0a2.16,2.16,0,0,1,.32-3h0a2.16,2.16,0,0,1,2.94.18h0Zm6.91,11.07a2.17,2.17,0,0,1-3.06-.09h0a2.16,2.16,0,0,1,.1-3.06h0a2.15,2.15,0,0,1,3,.08h0A2.19,2.19,0,0,1,51.4,246.05Z"/></g><path class="cls-2" d="M85.16,18.36a8.83,8.83,0,1,1-.39,12.47A8.82,8.82,0,0,1,85.16,18.36Z"/></svg>