<svg id="Capa_1" data-name="Capa 1" xmlns="http://www.w3.org/2000/svg" viewBox="0 0 800 120"><defs><style>.cls-1{opacity:0.15;}.cls-2{fill:#fff;}</style></defs><g class="cls-1"><path class="cls-2" d="M783.16,120c2.43,0,4.4-.79,4.4-1.78V40.58c0-1-2-1.78-4.4-1.78s-4.4.79-4.4,1.78v77.64C778.76,119.21,780.73,120,783.16,120Z"/><path class="cls-2" d="M762.12,120c2.43,0,4.4-.79,4.4-1.78V40.58c0-1-2-1.78-4.4-1.78s-4.41.79-4.41,1.78v77.64C757.71,119.21,759.68,120,762.12,120Z"/><path class="cls-2" d="M741.07,120c2.43,0,4.4-.79,4.4-1.78V41.94c0-1-2-1.78-4.4-1.78s-4.41.79-4.41,1.78v76.28C736.66,119.21,738.64,120,741.07,120Z"/><path class="cls-2" d="M720,120c2.43,0,4.4-.79,4.4-1.78V46.29c0-1-2-1.78-4.4-1.78s-4.4.8-4.4,1.78v71.93C715.62,119.21,717.59,120,720,120Z"/><path class="cls-2" d="M699,120c2.43,0,4.41-.79,4.41-1.78V52.66c0-1-2-1.77-4.41-1.77s-4.4.79-4.4,1.77v65.56C694.57,119.21,696.54,120,699,120Z"/><path class="cls-2" d="M677.92,120c2.44,0,4.41-.79,4.41-1.78V63.6c0-1-2-1.77-4.41-1.77s-4.4.79-4.4,1.77v54.62C673.52,119.21,675.49,120,677.92,120Z"/><path class="cls-2" d="M656.88,120c2.43,0,4.4-.79,4.4-1.78v-40c0-1-2-1.77-4.4-1.77s-4.4.79-4.4,1.77v40C652.48,119.21,654.45,120,656.88,120Z"/><path class="cls-2" d="M635.83,120c2.43,0,4.4-.79,4.4-1.78V92.13c0-1-2-1.77-4.4-1.77s-4.4.79-4.4,1.77v26.09C631.43,119.21,633.4,120,635.83,120Z"/><path class="cls-2" d="M614.78,120c2.43,0,4.4-.79,4.4-1.78V101c0-1-2-1.77-4.4-1.77s-4.4.79-4.4,1.77v17.23C610.38,119.21,612.35,120,614.78,120Z"/><path class="cls-2" d="M593.74,120c2.43,0,4.4-.79,4.4-1.78V107.74c0-1-2-1.77-4.4-1.77s-4.41.79-4.41,1.77v10.48C589.33,119.21,591.3,120,593.74,120Z"/><path class="cls-2" d="M572.69,120c2.43,0,4.4-.79,4.4-1.78V110.7c0-1-2-1.77-4.4-1.77s-4.41.79-4.41,1.77v7.52C568.28,119.21,570.26,120,572.69,120Z"/><path class="cls-2" d="M551.64,120c2.43,0,4.4-.79,4.4-1.78v-6.1c0-1-2-1.78-4.4-1.78s-4.4.8-4.4,1.78v6.1C547.24,119.21,549.21,120,551.64,120Z"/><path class="cls-2" d="M530.59,120c2.43,0,4.4-.79,4.4-1.78v-4.68c0-1-2-1.77-4.4-1.77s-4.4.79-4.4,1.77v4.68C526.19,119.21,528.16,120,530.59,120Z"/><path class="cls-2" d="M509.54,120c2.44,0,4.41-.79,4.41-1.78v-6.1c0-1-2-1.78-4.41-1.78s-4.4.8-4.4,1.78v6.1C505.14,119.21,507.11,120,509.54,120Z"/><path class="cls-2" d="M488.5,120c2.43,0,4.4-.79,4.4-1.78v-9.39c0-1-2-1.77-4.4-1.77s-4.41.79-4.41,1.77v9.39C484.09,119.21,486.06,120,488.5,120Z"/><path class="cls-2" d="M467.45,120c2.43,0,4.4-.79,4.4-1.78V102.09c0-1-2-1.78-4.4-1.78s-4.4.79-4.4,1.78v16.13C463.05,119.21,465,120,467.45,120Z"/><path class="cls-2" d="M446.4,120c2.43,0,4.4-.79,4.4-1.78V90.91c0-1-2-1.77-4.4-1.77s-4.4.79-4.4,1.77v27.31C442,119.21,444,120,446.4,120Z"/><path class="cls-2" d="M425.35,120c2.43,0,4.41-.79,4.41-1.78v-41c0-1-2-1.77-4.41-1.77s-4.4.79-4.4,1.77v41C421,119.21,422.92,120,425.35,120Z"/><path class="cls-2" d="M404.31,120c2.43,0,4.4-.79,4.4-1.78V56c0-1-2-1.78-4.4-1.78S399.9,55,399.9,56v62.25C399.9,119.21,401.88,120,404.31,120Z"/><path class="cls-2" d="M383.26,120c2.43,0,4.4-.79,4.4-1.78V31.32c0-1-2-1.77-4.4-1.77s-4.4.79-4.4,1.77v86.9C378.86,119.21,380.83,120,383.26,120Z"/><path class="cls-2" d="M362.21,120c2.43,0,4.4-.79,4.4-1.78V12.9c0-1-2-1.77-4.4-1.77s-4.4.79-4.4,1.77V118.22C357.81,119.21,359.78,120,362.21,120Z"/><path class="cls-2" d="M341.16,120c2.44,0,4.41-.79,4.41-1.78V3.6c0-1-2-1.78-4.41-1.78s-4.4.8-4.4,1.78V118.22C336.76,119.21,338.73,120,341.16,120Z"/><path class="cls-2" d="M320.12,120c2.43,0,4.4-.79,4.4-1.78V1.78c0-1-2-1.78-4.4-1.78s-4.41.79-4.41,1.78V118.22C315.71,119.21,317.68,120,320.12,120Z"/><path class="cls-2" d="M299.07,120c2.43,0,4.4-.79,4.4-1.78V4.47c0-1-2-1.78-4.4-1.78s-4.4.79-4.4,1.78V118.22C294.67,119.21,296.64,120,299.07,120Z"/><path class="cls-2" d="M278,120c2.43,0,4.4-.79,4.4-1.78V17.1c0-1-2-1.78-4.4-1.78s-4.4.79-4.4,1.78V118.22C273.62,119.21,275.59,120,278,120Z"/><path class="cls-2" d="M257,120c2.43,0,4.41-.79,4.41-1.78V44.27c0-1-2-1.77-4.41-1.77s-4.4.79-4.4,1.77v73.95C252.57,119.21,254.54,120,257,120Z"/><path class="cls-2" d="M235.93,120c2.43,0,4.4-.79,4.4-1.78V79.11c0-1-2-1.78-4.4-1.78s-4.41.8-4.41,1.78v39.11C231.52,119.21,233.5,120,235.93,120Z"/><path class="cls-2" d="M214.88,120c2.43,0,4.4-.79,4.4-1.78V98.67c0-1-2-1.78-4.4-1.78s-4.4.79-4.4,1.78v19.55C210.48,119.21,212.45,120,214.88,120Z"/><path class="cls-2" d="M193.83,120c2.43,0,4.4-.79,4.4-1.78V107.74c0-1-2-1.77-4.4-1.77s-4.4.79-4.4,1.77v10.48C189.43,119.21,191.4,120,193.83,120Z"/><path class="cls-2" d="M172.78,120c2.43,0,4.4-.79,4.4-1.78v-9.39c0-1-2-1.77-4.4-1.77s-4.4.79-4.4,1.77v9.39C168.38,119.21,170.35,120,172.78,120Z"/><path class="cls-2" d="M151.74,120c2.43,0,4.4-.79,4.4-1.78V107.74c0-1-2-1.77-4.4-1.77s-4.41.79-4.41,1.77v10.48C147.33,119.21,149.3,120,151.74,120Z"/><path class="cls-2" d="M130.69,120c2.43,0,4.4-.79,4.4-1.78V102.09c0-1-2-1.78-4.4-1.78s-4.4.79-4.4,1.78v16.13C126.29,119.21,128.26,120,130.69,120Z"/><path class="cls-2" d="M109.64,120c2.43,0,4.4-.79,4.4-1.78V89.68c0-1-2-1.77-4.4-1.77s-4.4.79-4.4,1.77v28.54C105.24,119.21,107.21,120,109.64,120Z"/><path class="cls-2" d="M88.59,120c2.43,0,4.41-.79,4.41-1.78V67.66c0-1-2-1.77-4.41-1.77s-4.4.79-4.4,1.77v50.56C84.19,119.21,86.16,120,88.59,120Z"/><path class="cls-2" d="M67.54,120c2.44,0,4.41-.79,4.41-1.78V53.57c0-1-2-1.77-4.41-1.77s-4.4.79-4.4,1.77v64.65C63.14,119.21,65.11,120,67.54,120Z"/><path class="cls-2" d="M46.5,120c2.43,0,4.4-.79,4.4-1.78V47.55c0-1-2-1.77-4.4-1.77s-4.4.79-4.4,1.77v70.67C42.1,119.21,44.07,120,46.5,120Z"/><path class="cls-2" d="M25.45,120c2.43,0,4.4-.79,4.4-1.78V44.27c0-1-2-1.77-4.4-1.77s-4.4.79-4.4,1.77v73.95C21.05,119.21,23,120,25.45,120Z"/><path class="cls-2" d="M4.4,120c2.43,0,4.41-.79,4.41-1.78V43.54c0-1-2-1.77-4.41-1.77S0,42.56,0,43.54v74.68C0,119.21,2,120,4.4,120Z"/></g></svg>