<svg id="Capa_1" data-name="Capa 1" xmlns="http://www.w3.org/2000/svg" xmlns:xlink="http://www.w3.org/1999/xlink" viewBox="0 0 800 160"><defs><style>.cls-1{fill:#fff;}.cls-2{opacity:0.32;}.cls-3{clip-path:url(#clip-path);}.cls-4{clip-path:url(#clip-path-2);}.cls-5{clip-path:url(#clip-path-3);}.cls-6{clip-path:url(#clip-path-4);}.cls-7{clip-path:url(#clip-path-5);}.cls-8{clip-path:url(#clip-path-6);}</style><clipPath id="clip-path"><path class="cls-1" d="M178.77,57.06a8.85,8.85,0,1,1-8.91-8.79A8.85,8.85,0,0,1,178.77,57.06Z"/></clipPath><clipPath id="clip-path-2"><path class="cls-1" d="M277.54,13.79A8.85,8.85,0,1,1,268.63,5,8.85,8.85,0,0,1,277.54,13.79Z"/></clipPath><clipPath id="clip-path-3"><path class="cls-1" d="M412.27,92a8.85,8.85,0,1,1-8.91-8.79A8.85,8.85,0,0,1,412.27,92Z"/></clipPath><clipPath id="clip-path-4"><path class="cls-1" d="M623,85.8a8.85,8.85,0,1,1-8.9-8.79A8.84,8.84,0,0,1,623,85.8Z"/></clipPath><clipPath id="clip-path-5"><path class="cls-1" d="M524.6,46a8.85,8.85,0,1,1-8.9-8.79A8.85,8.85,0,0,1,524.6,46Z"/></clipPath><clipPath id="clip-path-6"><path class="cls-1" d="M800,58.58a8.85,8.85,0,1,1-8.9-8.79A8.85,8.85,0,0,1,800,58.58Z"/></clipPath></defs><g class="cls-2"><path class="cls-1" d="M178.77,57.06a8.85,8.85,0,1,1-8.91-8.79A8.85,8.85,0,0,1,178.77,57.06Z"/><g class="cls-3"><rect class="cls-1" x="161.07" y="48.32" width="1.26" height="17.69" transform="translate(-0.36 1.02) rotate(-0.36)"/><rect class="cls-1" x="162.33" y="48.31" width="2" height="17.69" transform="translate(-0.36 1.03) rotate(-0.36)"/><rect class="cls-1" x="164.34" y="48.3" width="2" height="17.69" transform="translate(-0.36 1.04) rotate(-0.36)"/><rect class="cls-1" x="166.34" y="48.28" width="2" height="17.69" transform="translate(-0.36 1.05) rotate(-0.36)"/><rect class="cls-1" x="168.34" y="48.27" width="2" height="17.69" transform="translate(-0.36 1.06) rotate(-0.36)"/><rect class="cls-1" x="170.35" y="48.26" width="2" height="17.69" transform="translate(-0.36 1.08) rotate(-0.36)"/><rect class="cls-1" x="172.35" y="48.25" width="2" height="17.69" transform="translate(-0.36 1.09) rotate(-0.36)"/><rect class="cls-1" x="174.36" y="48.23" width="2" height="17.69" transform="translate(-0.36 1.1) rotate(-0.36)"/><rect class="cls-1" x="176.36" y="48.22" width="2" height="17.69" transform="translate(-0.35 1.12) rotate(-0.36)"/><rect class="cls-1" x="178.37" y="48.21" width="0.4" height="17.69" transform="translate(-0.35 1.12) rotate(-0.36)"/></g><path class="cls-1" d="M277.54,13.79A8.85,8.85,0,1,1,268.63,5,8.85,8.85,0,0,1,277.54,13.79Z"/><g class="cls-4"><rect class="cls-1" x="259.84" y="5.05" width="0.92" height="17.69" transform="translate(-0.08 1.64) rotate(-0.36)"/><rect class="cls-1" x="260.76" y="5.04" width="2.94" height="17.69" transform="translate(-0.08 1.65) rotate(-0.36)"/><rect class="cls-1" x="263.71" y="5.02" width="2.94" height="17.69" transform="translate(-0.08 1.67) rotate(-0.36)"/><rect class="cls-1" x="266.65" y="5" width="2.94" height="17.69" transform="translate(-0.08 1.68) rotate(-0.36)"/><rect class="cls-1" x="269.6" y="4.99" width="2.94" height="17.69" transform="translate(-0.08 1.7) rotate(-0.36)"/><rect class="cls-1" x="272.54" y="4.97" width="2.94" height="17.69" transform="translate(-0.08 1.72) rotate(-0.36)"/><rect class="cls-1" x="275.49" y="4.95" width="2.05" height="17.69" transform="translate(-0.08 1.74) rotate(-0.36)"/></g><path class="cls-1" d="M412.27,92a8.85,8.85,0,1,1-8.91-8.79A8.85,8.85,0,0,1,412.27,92Z"/><g class="cls-5"><rect class="cls-1" x="394.57" y="83.26" width="0.95" height="17.69" transform="translate(-0.57 2.48) rotate(-0.36)"/><rect class="cls-1" x="395.53" y="83.25" width="2.94" height="17.69" transform="translate(-0.57 2.5) rotate(-0.36)"/><rect class="cls-1" x="398.46" y="83.23" width="2.94" height="17.69" transform="translate(-0.57 2.51) rotate(-0.36)"/><rect class="cls-1" x="401.4" y="83.21" width="2.94" height="17.69" transform="translate(-0.57 2.53) rotate(-0.36)"/><rect class="cls-1" x="404.34" y="83.2" width="2.94" height="17.69" transform="translate(-0.57 2.55) rotate(-0.36)"/><rect class="cls-1" x="407.28" y="83.18" width="2.94" height="17.69" transform="translate(-0.57 2.57) rotate(-0.36)"/><rect class="cls-1" x="410.22" y="83.16" width="2.05" height="17.69" transform="translate(-0.57 2.58) rotate(-0.36)"/></g><path class="cls-1" d="M623,85.8a8.85,8.85,0,1,1-8.9-8.79A8.84,8.84,0,0,1,623,85.8Z"/><g class="cls-6"><rect class="cls-1" x="605.29" y="77.06" width="2.56" height="17.69" transform="translate(-0.53 3.81) rotate(-0.36)"/><rect class="cls-1" x="607.85" y="77.04" width="2.94" height="17.69" transform="translate(-0.53 3.83) rotate(-0.36)"/><rect class="cls-1" x="610.79" y="77.02" width="2.94" height="17.69" transform="translate(-0.53 3.85) rotate(-0.36)"/><rect class="cls-1" x="613.73" y="77" width="2.94" height="17.69" transform="translate(-0.53 3.87) rotate(-0.36)"/><rect class="cls-1" x="616.66" y="76.99" width="2.94" height="17.69" transform="translate(-0.53 3.88) rotate(-0.36)"/><rect class="cls-1" x="619.6" y="76.97" width="2.94" height="17.69" transform="translate(-0.53 3.9) rotate(-0.36)"/><rect class="cls-1" x="622.54" y="76.96" width="0.44" height="17.69" transform="translate(-0.53 3.91) rotate(-0.36)"/></g><path class="cls-1" d="M524.6,46a8.85,8.85,0,1,1-8.9-8.79A8.85,8.85,0,0,1,524.6,46Z"/><g class="cls-7"><rect class="cls-1" x="506.91" y="37.3" width="2.51" height="17.69" transform="translate(-0.28 3.19) rotate(-0.36)"/><rect class="cls-1" x="509.42" y="37.28" width="2.94" height="17.69" transform="translate(-0.28 3.21) rotate(-0.36)"/><rect class="cls-1" x="512.36" y="37.26" width="2.94" height="17.69" transform="translate(-0.28 3.23) rotate(-0.36)"/><rect class="cls-1" x="515.3" y="37.24" width="2.94" height="17.69" transform="translate(-0.28 3.25) rotate(-0.36)"/><rect class="cls-1" x="518.23" y="37.22" width="2.94" height="17.69" transform="translate(-0.28 3.27) rotate(-0.36)"/><rect class="cls-1" x="521.17" y="37.2" width="2.94" height="17.69" transform="translate(-0.28 3.28) rotate(-0.36)"/><rect class="cls-1" x="524.11" y="37.19" width="0.49" height="17.69" transform="translate(-0.28 3.29) rotate(-0.36)"/></g><path class="cls-1" d="M800,58.58a8.85,8.85,0,1,1-8.9-8.79A8.85,8.85,0,0,1,800,58.58Z"/><g class="cls-8"><rect class="cls-1" x="782.31" y="49.83" width="2.53" height="17.69" transform="translate(-0.35 4.92) rotate(-0.36)"/><rect class="cls-1" x="784.84" y="49.82" width="2.94" height="17.69" transform="translate(-0.35 4.94) rotate(-0.36)"/><rect class="cls-1" x="787.78" y="49.8" width="2.94" height="17.69" transform="translate(-0.35 4.96) rotate(-0.36)"/><rect class="cls-1" x="790.72" y="49.78" width="2.94" height="17.69" transform="translate(-0.35 4.98) rotate(-0.36)"/><rect class="cls-1" x="793.66" y="49.76" width="2.94" height="17.69" transform="translate(-0.35 5) rotate(-0.36)"/><rect class="cls-1" x="796.59" y="49.74" width="2.94" height="17.69" transform="translate(-0.35 5.01) rotate(-0.36)"/><rect class="cls-1" x="799.53" y="49.73" width="0.47" height="17.69" transform="translate(-0.35 5.02) rotate(-0.36)"/></g><path class="cls-1" d="M788.4,55.41a211.61,211.61,0,0,0-43.15,7.91c-17.76,5-34.68,12-52.44,17.06s-36.29,7.45-55.13,6a169.87,169.87,0,0,1-53.52-13.56c-15.86-6.84-28.92-17-44.19-24.51-14-6.91-28.33-8.41-42.72-1.42C480.42,55,465,65.69,449.15,75.2c-15,9-32.37,18.37-51.56,15.67-17-2.39-30.26-13.37-41.64-23.57C332.12,46,307.53,23.83,273.41,15.08c-16.21-4.16-33.88-5.16-50.3-1.16C208.78,17.4,196.38,24.74,186,33.72c-10.64,9.2-19.37,19.86-28.21,30.31C148.16,75.41,138,89.15,123.27,96.14c-34.93,16.61-64.18-21.1-90.74-34C22.86,57.46,11.26,53.74,0,54.68l0,2.87c1.05-.1,2.13-.16,3.22-.17C21,57.23,37.6,67.14,50.33,76.67c12.05,9,24.42,18.66,39.64,23.59,14.36,4.65,29.11,2.82,41.24-5.28,12.31-8.21,21.37-20,30.42-30.68,19.62-23.23,41.3-47.77,77.63-49.91,38.84-2.28,72.07,17.94,98.08,40.32,20.9,18,43.05,44.51,77,38.61,17.08-3,31.48-12.64,45.35-21.08Q472.28,64.59,485,57.12c7.6-4.46,15.49-9.8,24.64-11.65,18.92-3.81,35.52,9,49.66,17.71a182.84,182.84,0,0,0,46.1,20.2,163,163,0,0,0,50.84,6.15c18.26-.78,35.62-5.47,52.54-11.13,25.52-8.54,52-18.27,79.38-20.27A5.47,5.47,0,0,1,788.4,55.41Z"/></g></svg>